<?xml version="1.0" encoding="utf-8"?>
<!-- Generator: Adobe Illustrator 19.1.1, SVG Export Plug-In . SVG Version: 6.00 Build 0)  -->
<svg version="1.1" id="Layer_1" xmlns="http://www.w3.org/2000/svg" xmlns:xlink="http://www.w3.org/1999/xlink" x="0px" y="0px"
	 viewBox="0 0 634 319" style="enable-background:new 0 0 634 319;" xml:space="preserve">
<g>
	<path d="M296,73.6c0-4.3-1.4-7.5-4.2-9.9c-2.8-2.3-7.1-3.4-12.9-3.4h-9.2v27.8h8.9c2.9,0,5.5-0.5,7.7-1.2c2.2-0.7,4.1-1.7,5.5-3
		c1.4-1.3,2.4-2.9,3.1-4.6C295.7,77.7,296,75.7,296,73.6z"/>
	<path d="M448,72.6c-0.5-1.3-0.9-2.7-1.5-4.3c-0.6-1.6-1-3.6-1.6-5.6c-0.6,2-1.2,3.8-1.6,5.6c-0.5,1.7-1,3.1-1.5,4.4l-9.5,26h25.4
		L448,72.6z"/>
	<path d="M274,207.8c-2.3-2.6-5.1-4.4-8.4-5.8c-3.2-1.4-7-2.1-11-2.1h-15.1v59h15.1c4.1,0,7.8-0.7,11-2.1c3.2-1.4,6-3.2,8.4-5.8
		s3.9-5.6,5.2-9.3s1.9-7.8,1.9-12.4s-0.6-8.6-1.9-12.3C278,213.5,276.3,210.4,274,207.8z"/>
	<path d="M121.4,207.8c-2.3-2.6-5.1-4.4-8.4-5.8c-3.2-1.4-7-2.1-11-2.1H86.9v59H102c4.1,0,7.8-0.7,11-2.1c3.2-1.4,6-3.2,8.4-5.8
		s3.9-5.6,5.2-9.3c1.3-3.7,1.9-7.8,1.9-12.4s-0.6-8.6-1.9-12.3C125.3,213.5,123.7,210.4,121.4,207.8z"/>
	<path d="M179.4,111.9c2.3,2.6,5.1,4.5,8.4,5.9c3.2,1.4,7.1,2,11.1,2c4.1,0,7.8-0.6,11-2s6-3.4,8.4-5.9c2.3-2.6,4.1-5.6,5.2-9.3
		c1.2-3.7,1.9-7.8,1.9-12.4s-0.7-8.6-1.9-12.3c-1.2-3.7-2.9-6.7-5.2-9.3c-2.3-2.6-5.1-4.5-8.4-5.9s-7-2-11-2c-4.1,0-7.9,0.6-11.1,2
		c-3.2,1.4-6,3.4-8.4,5.9c-2.3,2.6-4.1,5.6-5.3,9.3c-1.3,3.7-1.9,7.7-1.9,12.3s0.6,8.7,1.9,12.4S177.1,109.3,179.4,111.9z"/>
	<path d="M0,0v319h634V0H0z M494.4,125.3c0-2,0.9-3.1,2.9-3.6c0.1,0,0.3,0,0.7-0.1c0.3-0.1,0.9-0.2,1.7-0.3c0.8-0.1,2.1-0.3,3.5-0.6
		V59.8c-1.4-0.2-2.7-0.5-3.5-0.6c-0.8-0.1-1.4-0.3-1.7-0.3c-0.3,0-0.6-0.1-0.7-0.1c-2-0.5-2.9-1.6-2.9-3.6v-6.8h8.8h8.1
		c0.7,0,1.3,0.1,1.7,0.1s0.9,0.1,1.3,0.3c0.3,0.1,0.7,0.3,1,0.7s0.7,0.8,1.2,1.4l44.1,56c-0.1-1.4-0.2-2.7-0.3-3.9
		c-0.1-1.3-0.1-2.6-0.1-3.7V59.8c-4.9-0.7-7.3-1-7.5-1c-2-0.5-2.9-1.6-2.9-3.6v-6.8h10.4h13.8h8.7v6.8c0,2-0.9,3.1-2.9,3.6
		c-0.1,0-0.3,0.1-0.7,0.1s-0.9,0.2-1.7,0.3c-0.8,0.1-2,0.3-3.4,0.6v72.4h-8.1c-1.3,0-2.2-0.2-3-0.6s-1.6-1-2.4-2.1l-43.8-55.8
		c0.1,1.3,0.2,2.4,0.2,3.6s0.1,2.3,0.1,3.4v40c4.9,0.7,7.3,1,7.5,1c2,0.5,2.9,1.6,2.9,3.6v6.8h-10.4h-13.7h-8.8V125.3z M324.4,72.9
		c2.1-5.2,5-9.7,8.8-13.6c3.7-3.8,8.4-6.7,13.7-8.8c5.1-2,10.9-3,17.3-3.1h0.7h0.1c9,0,18.9,2.1,29.7,6v21.3h-0.5h-1.5H388
		c-1.5,0-2.3-0.7-2.7-2.1c-0.2-1-0.6-4.1-1-9c-5.8-2-12.4-2.9-19.8-2.9c-4.2,0-7.8,0.7-11.1,2.1c-3.4,1.4-6.3,3.4-8.6,5.9
		c-2.3,2.6-4.2,5.7-5.5,9.3c-1.3,3.6-2,7.7-2,12.2c0,4.9,0.7,9.3,2.1,13c1.4,3.8,3.2,7,5.7,9.5c2.4,2.6,5.3,4.5,8.7,5.9
		c3.4,1.4,7.1,2.1,11,2.1c3.5,0,6.5-0.3,9.2-0.9c2.6-0.6,5.1-1.5,7.4-2.7v-15.2h-10.4c-1,0-1.9-0.3-2.4-0.9s-0.8-1.2-0.8-2v-8.8
		h27.8v33.9c-2.1,1.5-4.3,2.9-6.6,4.1c-2.3,1.2-4.8,2.1-7.3,2.8c-2.6,0.7-5.5,1.3-8.5,1.6c-3,0.3-6.1,0.6-9.6,0.6
		c-6.1,0-11.7-1.2-16.8-3.2c-5.1-2.1-9.6-5-13.3-8.8s-6.7-8.4-8.8-13.6c-2.1-5.2-3.1-11-3.1-17.3S322.3,78.1,324.4,72.9z
		 M159.4,73.1c2.1-5.2,5-9.7,8.7-13.6c3.7-3.8,8.2-6.8,13.5-8.9c5.2-2.1,11-3.2,17.4-3.2s12.1,1,17.3,3.2s9.7,5.1,13.5,8.9
		c3.7,3.8,6.5,8.4,8.6,13.6c2.1,5.2,3.1,10.9,3.1,17.1c0,6.1-1,11.9-3.1,17.2s-4.9,9.7-8.6,13.6s-8.2,6.8-13.5,8.9
		s-10.9,3.2-17.3,3.2s-12.2-1.2-17.4-3.2s-9.7-5.1-13.5-8.9s-6.6-8.4-8.7-13.6c-2.1-5.2-3-11-3-17.2C156.3,84,157.3,78.4,159.4,73.1
		z M43.9,132.2v-6.8c0-2,0.9-3.1,2.9-3.6c0.1,0,0.3,0,0.7-0.1c0.3-0.1,0.9-0.2,1.7-0.3c0.8-0.1,2.1-0.3,3.5-0.6V59.8
		c-1.4-0.2-2.7-0.5-3.5-0.6c-0.8-0.1-1.4-0.3-1.7-0.3c-0.3-0.1-0.6-0.1-0.7-0.1c-2-0.5-2.9-1.6-2.9-3.6v-6.8h8.8h11.7
		c0.7,0,1.4,0.1,1.9,0.1s1,0.1,1.4,0.2c0.5,0.1,0.7,0.5,1,0.8c0.3,0.3,0.7,0.8,1,1.4l25.1,46.5c0.7,1.3,1.2,2.6,1.7,3.8
		c0.6,1.3,1.2,2.7,1.7,4.1c0.6-1.4,1-2.7,1.6-4.1c0.6-1.4,1.2-2.7,1.9-3.9l24.8-46.4c0.3-0.6,0.6-1,0.9-1.4s0.7-0.7,1.2-0.8
		c0.5-0.1,0.9-0.2,1.4-0.2s1-0.1,1.7-0.1h11.8h8.7v6.8c0,2-0.9,3.1-2.9,3.6c-0.1,0-0.3,0.1-0.7,0.1c-0.3,0-0.9,0.2-1.7,0.3
		c-0.8,0.1-2,0.3-3.4,0.6v60.9c1.4,0.2,2.6,0.5,3.4,0.6c0.8,0.1,1.4,0.3,1.7,0.3c0.3,0,0.6,0.1,0.7,0.1c2,0.5,2.9,1.6,2.9,3.6v6.8
		h-8.7h-13.8h-10.4v-6.8c0-2,0.9-3.1,2.9-3.6c0.2,0,2.8-0.3,7.5-1V78c0-1,0.1-2.1,0.1-3.2c0-1.2,0.1-2.4,0.2-3.7L105,118.6
		c-0.6,1-1.4,2-2.3,2.6c-0.9,0.6-2,0.9-3.2,0.9h-2.1c-1.3,0-2.3-0.3-3.2-0.9c-0.9-0.6-1.7-1.5-2.3-2.6L66.1,70.9
		c0.1,1.3,0.1,2.6,0.2,3.7c0.1,1.2,0.1,2.3,0.1,3.4v42.7c4.9,0.7,7.3,1,7.5,1c2,0.5,2.9,1.6,2.9,3.6v6.8H66.4H52.8H43.9z
		 M141.3,246.3c-2.1,5.1-4.9,9.6-8.6,13.3s-8.2,6.5-13.5,8.6s-10.9,3.1-17.3,3.1H71.3h-8.8v-6.8c0-2,0.9-3.1,2.9-3.6
		c0.1,0,0.3-0.1,0.7-0.1c0.3,0,0.9-0.2,1.7-0.3c0.8-0.1,2.1-0.3,3.5-0.6V199c-1.4-0.2-2.7-0.5-3.5-0.6c-0.8-0.1-1.4-0.3-1.7-0.3
		c-0.3,0-0.6-0.1-0.7-0.1c-2-0.5-2.9-1.6-2.9-3.6v-6.8h8.8H102c6.4,0,12.1,1,17.3,3.1s9.7,4.9,13.5,8.6s6.5,8.1,8.6,13.2
		s3.1,10.8,3.1,16.9C144.5,235.5,143.4,241.2,141.3,246.3z M210.2,195.6v4.3v9.6h-0.6h-1.4h-4.8c-1.5,0-2.3-0.8-2.7-2.2
		c-0.1-0.9-0.5-3.4-0.8-7.4h-27v23.2h28.4v12.1H173v23.7h27c0.3-4.1,0.7-6.5,0.8-7.4c0.3-1.4,1.2-2.2,2.7-2.2h4.8h1.4h0.6v9.6v4.4
		v8.1h-52.9h-8.8v-6.8c0-2,0.9-3.1,2.9-3.6c0.1,0,0.3-0.1,0.7-0.1c0.3,0,0.9-0.2,1.7-0.3c0.8-0.1,2.1-0.3,3.5-0.6V199
		c-1.4-0.2-2.7-0.5-3.5-0.6c-0.8-0.1-1.4-0.3-1.7-0.3c-0.3,0-0.6-0.1-0.7-0.1c-2-0.5-2.9-1.6-2.9-3.6v-6.8h8.8h52.9V195.6z
		 M294,246.3c-2.1,5.1-4.9,9.6-8.6,13.3s-8.2,6.5-13.5,8.6s-10.9,3.1-17.3,3.1h-30.7h-8.8v-6.8c0-2,0.9-3.1,2.9-3.6
		c0.1,0,0.3-0.1,0.7-0.1c0.3,0,0.9-0.2,1.7-0.3c0.8-0.1,2.1-0.3,3.5-0.6V199c-1.4-0.2-2.7-0.5-3.5-0.6c-0.8-0.1-1.4-0.3-1.7-0.3
		c-0.3,0-0.6-0.1-0.7-0.1c-2-0.5-2.9-1.6-2.9-3.6v-6.8h8.8h30.7c6.4,0,12.1,1,17.3,3.1s9.7,4.9,13.5,8.6s6.5,8.1,8.6,13.2
		s3.1,10.8,3.1,16.9C297.1,235.5,296.1,241.2,294,246.3z M299,129.1l-17.6-26.9c-0.7-1-1.4-1.6-2.2-2.1c-0.8-0.5-2-0.7-3.5-0.7h-5.9
		v21.3c1.4,0.2,2.7,0.5,3.5,0.6c0.8,0.1,1.4,0.3,1.7,0.3c0.3,0,0.6,0.1,0.7,0.1c2,0.5,2.9,1.6,2.9,3.6v6.8h-8.8h-15.5h-8.8v-6.8
		c0-2,0.9-3.1,2.9-3.6c0.1,0,0.3-0.1,0.7-0.1c0.3-0.1,0.9-0.2,1.7-0.3c0.8-0.1,2.1-0.3,3.5-0.6V59.8c-1.4-0.2-2.7-0.5-3.5-0.6
		c-0.8-0.1-1.4-0.3-1.7-0.3c-0.3,0-0.6-0.1-0.7-0.1c-2-0.5-2.9-1.6-2.9-3.6v-6.8h8.8H279c5.7,0,10.7,0.6,14.7,1.7
		c4.1,1.2,7.4,2.9,10,5c2.6,2.1,4.6,4.8,5.8,7.7c1.3,3,1.9,6.1,1.9,9.7c0,2.8-0.5,5.5-1.3,8c-0.8,2.6-2.1,4.8-3.6,6.8
		s-3.5,3.8-5.8,5.3c-2.3,1.5-5,2.8-7.9,3.7c2,1.2,3.7,2.8,5.1,4.9l13.2,19.5c1.4,0.2,2.7,0.5,3.6,0.6c0.9,0.1,1.5,0.3,2,0.3
		c0.5,0,0.8,0.1,0.9,0.1c2,0.5,2.9,1.6,2.9,3.6v6.8h-1.6h-7.2h-6.8c-1.4,0-2.6-0.2-3.5-0.8C300.4,130.8,299.7,130.1,299,129.1z
		 M409.6,194.4c0,2-0.9,3.1-2.9,3.6c-0.1,0-0.3,0.1-0.7,0.1c-0.3,0-0.9,0.2-1.7,0.3c-0.8,0.1-2,0.3-3.4,0.6v60.9
		c1.4,0.2,2.6,0.5,3.4,0.6c0.8,0.1,1.4,0.3,1.7,0.3c0.3,0,0.6,0.1,0.7,0.1c2,0.5,2.9,1.6,2.9,3.6v6.8h-8.7h-13.8h-10.4v-6.8
		c0-2,0.9-3.1,2.9-3.6c0.2,0,2.8-0.3,7.5-1v-42.7c0-1,0.1-2.1,0.1-3.2s0.1-2.4,0.2-3.7l-25.3,47.6c-0.6,1-1.4,2-2.3,2.6
		c-0.9,0.6-2,0.9-3.2,0.9h-2.1c-1.3,0-2.3-0.3-3.2-0.9c-0.9-0.6-1.7-1.5-2.3-2.6l-25.6-47.7c0.1,1.3,0.1,2.6,0.2,3.7
		c0.1,1.2,0.1,2.3,0.1,3.4v42.7c4.9,0.7,7.3,1,7.5,1c2,0.5,2.9,1.6,2.9,3.6v6.8h-10.4H310h-8.8v-6.8c0-2,0.9-3.1,2.9-3.6
		c0.1,0,0.3,0,0.7-0.1c0.3-0.1,0.9-0.2,1.7-0.3c0.8-0.1,2.1-0.3,3.5-0.6V199c-1.4-0.2-2.7-0.5-3.5-0.6c-0.8-0.1-1.4-0.3-1.7-0.3
		c-0.3-0.1-0.6-0.1-0.7-0.1c-2-0.5-2.9-1.6-2.9-3.6v-6.8h8.8h11.7c0.7,0,1.4,0.1,1.9,0.1s1,0.1,1.4,0.2c0.5,0.1,0.7,0.5,1,0.8
		c0.3,0.3,0.7,0.8,1,1.4l25.1,46.5c0.7,1.3,1.2,2.6,1.7,3.8c0.6,1.3,1.2,2.7,1.7,4.1c0.6-1.4,1-2.7,1.6-4.1c0.6-1.4,1.2-2.7,1.9-3.9
		l24.8-46.4c0.3-0.6,0.6-1,0.9-1.4s0.7-0.7,1.2-0.8c0.5-0.1,0.9-0.2,1.4-0.2s1-0.1,1.7-0.1h11.8h8.7V194.4z M403.9,132.2h-4.1v-5.9
		c0-1.4,0.8-2.3,2.3-3c0.6-0.2,2.8-1.2,6.4-2.7l28.3-72.3h16l28.4,72.3c3.6,1.5,5.8,2.4,6.4,2.7c1.5,0.6,2.2,1.6,2.2,3v5.9h-4.1h-9
		h-2h-1h-12.2v-5.9c0-1.4,0.8-2.3,2.3-3c0.2-0.1,1-0.3,2.3-0.9l-0.5-1.3l-4.2-11.4h-33.4l-4.3,11.9l-0.3,0.7
		c1.3,0.6,2.1,0.8,2.3,0.9c1.5,0.7,2.3,1.6,2.3,3v5.9h-12.1h-1.2H413H403.9z M495.5,246.6c-2.1,5.2-4.9,9.7-8.6,13.6
		s-8.2,6.8-13.5,8.9s-10.9,3.2-17.3,3.2s-12.2-1.2-17.4-3.2s-9.7-5.1-13.5-8.9s-6.6-8.4-8.7-13.6c-2.1-5.2-3-11-3-17.2
		c0-6.1,0.9-11.8,3-17.1c2.1-5.2,5-9.7,8.7-13.6s8.2-6.8,13.5-8.9s11-3.2,17.4-3.2s12.1,1,17.3,3.2s9.7,5.1,13.5,8.9
		s6.5,8.4,8.6,13.6s3.1,10.9,3.1,17.1C498.6,235.5,497.6,241.3,495.5,246.6z M590.9,194.4c0,2-0.9,3.1-2.9,3.6
		c-0.1,0-0.3,0.1-0.7,0.1s-0.9,0.2-1.7,0.3c-0.8,0.1-2,0.3-3.4,0.6v72.4h-8.1c-1.3,0-2.2-0.2-3-0.6s-1.6-1-2.4-2.1l-43.8-55.8
		c0.1,1.3,0.2,2.4,0.2,3.6c0,1.2,0.1,2.3,0.1,3.4v40c4.9,0.7,7.3,1,7.5,1c2,0.5,2.9,1.6,2.9,3.6v6.8h-10.4h-13.7h-8.8v-6.8
		c0-2,0.9-3.1,2.9-3.6c0.1,0,0.3,0,0.7-0.1c0.3-0.1,0.9-0.2,1.7-0.3c0.8-0.1,2.1-0.3,3.5-0.6V199c-1.4-0.2-2.7-0.5-3.5-0.6
		c-0.8-0.1-1.4-0.3-1.7-0.3c-0.3,0-0.6-0.1-0.7-0.1c-2-0.5-2.9-1.6-2.9-3.6v-6.8h8.8h8.1c0.7,0,1.3,0.1,1.7,0.1s0.9,0.1,1.3,0.3
		c0.3,0.1,0.7,0.3,1,0.7s0.7,0.8,1.2,1.4l44.1,56c-0.1-1.4-0.2-2.7-0.3-3.9c-0.1-1.3-0.1-2.6-0.1-3.7V199c-4.9-0.7-7.3-1-7.5-1
		c-2-0.5-2.9-1.6-2.9-3.6v-6.8h10.4h13.8h8.7V194.4z"/>
	<path d="M475.5,207.8c-2.3-2.6-5.1-4.5-8.4-5.9s-7-2-11-2c-4.1,0-7.9,0.6-11.1,2c-3.2,1.4-6,3.4-8.4,5.9s-4.1,5.6-5.3,9.3
		s-1.9,7.7-1.9,12.3s0.6,8.7,1.9,12.4s3,6.7,5.3,9.3s5.1,4.5,8.4,5.9c3.2,1.4,7.1,2,11.1,2c4.1,0,7.8-0.6,11-2
		c3.2-1.4,6-3.4,8.4-5.9c2.3-2.6,4.1-5.6,5.2-9.3c1.2-3.7,1.9-7.8,1.9-12.4s-0.7-8.6-1.9-12.3C479.6,213.4,477.8,210.4,475.5,207.8z
		"/>
</g>
</svg>
